<?xml version="1.0" encoding="UTF-8"?>
<svg width="186px" height="42px" viewBox="0 0 186 42" version="1.1" xmlns="http://www.w3.org/2000/svg" xmlns:xlink="http://www.w3.org/1999/xlink">
    <!-- Generator: Sketch 46.2 (44496) - http://www.bohemiancoding.com/sketch -->
    <title>102_logo</title>
    <desc>Created with Sketch.</desc>
    <defs>
        <polygon id="path-1" points="0 21.353 0 41.94 91.616 41.94 91.616 0.766 0 0.766"></polygon>
    </defs>
    <g id="Page-1" stroke="none" stroke-width="1" fill="none" fill-rule="evenodd">
        <g id="102_logo">
            <path d="M26.711,21.978 C26.834,24.932 27.613,26.983 29.048,28.214 C30.28,29.322 32.085,29.855 34.217,29.855 C36.31,29.855 38.28,29.404 39.84,28.624 C40.25,28.419 40.414,28.46 40.742,29.281 L40.906,29.691 C41.152,30.307 41.152,30.594 40.865,30.758 C38.813,31.825 36.433,32.358 33.766,32.358 C27.408,32.358 23.837,28.255 23.837,21.608 C23.837,14.921 27.408,9.875 33.561,9.875 C37.091,9.875 39.51,11.599 40.865,14.306 C41.807,16.234 42.259,18.491 42.259,20.953 C42.259,21.896 42.095,21.978 41.685,21.978 L26.711,21.978 Z M39.51,19.845 C39.428,16.07 37.665,12.377 33.52,12.377 C29.992,12.377 27.326,14.429 26.752,19.845 L39.51,19.845 L39.51,19.845 Z" id="Fill-1" fill="#4D4E4C"></path>
            <g id="Group-6">
                <mask id="mask-2" fill="white">
                    <use xlink:href="#path-1"></use>
                </mask>
                <g id="Clip-3"></g>
                <path d="M59.614,13.321 C59.161,13.977 58.956,14.018 58.669,13.813 C57.07,12.746 55.511,12.173 53.417,12.173 C50.628,12.173 48.906,13.444 48.906,15.701 C48.906,18.409 51.038,18.901 53.827,19.64 C57.726,20.665 60.639,21.732 60.639,25.793 C60.639,30.061 57.48,32.358 52.885,32.358 C50.013,32.358 47.715,31.456 46.157,30.43 C45.909,30.266 45.909,30.102 46.28,29.404 L46.403,29.158 C46.854,28.296 47.018,28.255 47.346,28.46 C48.865,29.404 50.956,30.143 52.803,30.143 C56.084,30.143 58.177,28.953 58.177,26.122 C58.177,23.578 56.248,22.88 52.762,22.019 C50.751,21.527 48.988,20.871 47.961,19.968 C46.895,19.024 46.28,17.629 46.28,16.029 C46.28,12.049 49.275,9.875 53.499,9.875 C55.921,9.875 58.3,10.695 59.983,12.008 C60.229,12.213 60.188,12.459 59.778,13.075 L59.614,13.321" id="Fill-2" fill="#4D4E4C" mask="url(#mask-2)"></path>
                <path d="M16.782,0.766 L16.451,0.766 C15.796,0.766 15.304,0.848 15.304,1.136 L15.304,11.598 C13.909,10.531 11.817,9.875 9.847,9.875 C3.242,9.875 0,15.413 0,21.568 C0,28.337 3.283,32.358 9.109,32.358 C11.918,32.358 14.066,31.408 15.304,29.668 L15.304,31.538 C15.304,31.825 15.509,31.948 16.493,31.948 L16.823,31.948 C17.724,31.948 17.971,31.825 17.971,31.538 L17.971,1.136 C17.971,0.848 17.519,0.766 16.782,0.766 M13.992,28.255 C12.965,29.322 11.283,29.937 9.437,29.937 C5.456,29.937 2.871,27.066 2.871,21.445 C2.871,15.947 5.703,12.377 10.093,12.377 C12.145,12.377 13.826,13.075 15.304,14.306 L15.304,21.937 C15.304,25.712 15.098,27.106 13.992,28.255" id="Fill-4" fill="#4D4E4C" mask="url(#mask-2)"></path>
                <path d="M91.616,20.994 L91.616,28.132 C91.616,31.743 91.41,34.082 90.796,36.092 C89.563,39.989 86.282,42 81.809,42 C79.758,42 77.459,41.548 76.107,40.933 C75.861,40.81 75.738,40.646 76.025,39.784 L76.107,39.538 C76.435,38.594 76.517,38.512 76.927,38.676 C78.323,39.251 79.84,39.538 81.809,39.538 C85.544,39.538 88.004,37.856 88.702,34.287 C88.867,33.22 88.949,31.168 88.949,29.24 C87.266,31.003 84.927,31.948 82.179,31.948 C76.435,31.948 73.522,27.394 73.522,21.363 C73.563,14.224 77.5,9.875 82.959,9.875 C85.378,9.875 87.512,10.614 88.908,12.623 L88.949,10.655 C88.949,10.368 89.154,10.285 90.096,10.285 L90.261,10.285 C91.328,10.285 91.451,10.368 91.451,10.655 C91.534,12.828 91.616,17.301 91.616,20.994 M88.949,20.295 C88.949,17.342 88.825,16.152 88.251,15.044 C87.512,13.567 85.831,12.459 83.328,12.459 C78.733,12.459 76.394,15.906 76.394,21.199 C76.394,26.532 78.528,29.486 82.877,29.486 C85.255,29.486 87.471,28.296 88.949,26.532 L88.949,20.295" id="Fill-5" fill="#4D4E4C" mask="url(#mask-2)"></path>
            </g>
            <path d="M100.395,13.28 C101.955,11.106 104.375,9.875 107.617,9.875 C110.119,9.875 112.13,10.613 113.483,12.008 C114.879,13.444 115.494,15.578 115.494,18.901 L115.494,31.497 C115.494,31.784 115.288,31.948 114.346,31.948 L114.018,31.948 C113.032,31.948 112.827,31.784 112.827,31.497 L112.827,20.747 C112.827,17.178 112.663,15.413 111.515,14.059 C110.611,12.993 108.971,12.501 106.96,12.501 C104.703,12.501 103.103,13.198 101.873,14.511 C101.217,15.249 100.766,16.358 100.643,17.465 C100.518,18.655 100.518,20.912 100.518,23.413 L100.518,31.497 C100.518,31.784 100.231,31.948 99.37,31.948 L99.042,31.948 C98.058,31.948 97.851,31.784 97.851,31.497 L97.851,16.07 C97.851,14.388 97.851,12.501 97.769,10.654 C97.769,10.367 98.099,10.285 98.878,10.285 L99.165,10.285 C99.985,10.285 100.272,10.367 100.272,10.654 L100.395,13.28" id="Fill-7" fill="#4D4E4C"></path>
            <polyline id="Fill-8" fill="#E6772F" points="128.427 1.277 132.759 1.277 132.759 31.915 127.507 31.915 127.507 8.28 122.125 12.569 119.103 8.717 128.427 1.277"></polyline>
            <path d="M162.303,16.596 C162.303,24.912 158.625,32.439 150.834,32.439 C143.045,32.439 139.28,24.912 139.28,16.596 C139.28,8.28 143.045,0.753 150.834,0.753 C158.625,0.753 162.303,8.28 162.303,16.596 M157.051,16.596 C157.051,10.6 155.08,5.654 150.834,5.654 C146.59,5.654 144.532,10.6 144.532,16.596 C144.532,22.592 146.59,27.538 150.834,27.538 C155.08,27.538 157.051,22.592 157.051,16.596" id="Fill-9" fill="#E6772F"></path>
            <path d="M176.746,17.647 C177.883,16.159 180.29,13.839 180.29,10.382 C180.29,7.93 178.629,5.654 175.74,5.654 C171.231,5.654 170.269,10.118 170.269,10.118 L165.585,8.411 C165.585,8.411 167.556,0.753 175.74,0.753 C182.348,0.753 185.543,5.217 185.543,10.295 C185.543,14.102 183.617,16.815 182.873,17.822 L175.827,26.925 L185.674,26.925 L185.674,31.915 L165.498,31.915 L176.746,17.647" id="Fill-10" fill="#E6772F"></path>
            <path d="M67.08,3.974 C67.97,3.974 68.731,3.275 68.731,2.292 C68.731,1.339 67.97,0.577 67.08,0.577 C66.192,0.577 65.43,1.339 65.43,2.292 C65.43,3.275 66.192,3.974 67.08,3.974" id="Fill-11" fill="#4D4E4C"></path>
            <path d="M69.923,30.81 L69.923,30.646 C69.923,29.793 69.831,29.784 69.528,29.784 C68.518,29.756 68.401,29.448 68.393,27.993 L68.393,10.919 C68.393,10.301 68.284,10.303 67.358,10.303 L67.359,10.301 L64.888,10.301 C64.6,10.301 64.517,10.547 64.517,11.49 L64.517,11.819 C64.517,12.681 64.6,12.967 64.888,12.967 L65.726,12.967 L65.726,29.108 C65.726,30.154 66.576,31.918 68.578,31.918 C69.111,31.918 69.433,31.881 69.72,31.799 C69.965,31.717 69.922,31.474 69.923,30.81" id="Fill-12" fill="#4D4E4C"></path>
        </g>
    </g>
</svg>