<?xml version="1.0" encoding="UTF-8"?>
<svg version="1.1" viewBox="0 0 428 428" xmlns="http://www.w3.org/2000/svg">
<g fill="none" fill-rule="evenodd">
<g fill-rule="nonzero">
<path d="m213.6 0.1c-117.9 0-213.5 95.6-213.5 213.5s95.6 213.5 213.5 213.5 213.5-95.6 213.5-213.5-95.5-213.5-213.5-213.5z" fill="#000" opacity=".6"/>
<path d="m327.7 99.6c-1.5-1.5-3.7-2.3-5.9-2l-64.1 8.5c-3.8 0.5-6.5 4-6 7.9 0.5 3.8 4 6.5 7.9 6l43.6-5.8-189 189 5.8-43.6c0.5-3.8-2.2-7.4-6-7.9s-7.4 2.2-7.9 6l-8.5 64.1v0.1 0.6 0.2 0.7 0.1c0 0.2 0.1 0.4 0.1 0.7v0.2c0 0.2 0.1 0.4 0.1 0.5s0 0.1 0.1 0.2c0.1 0.2 0.1 0.3 0.2 0.5 0 0.1 0.1 0.1 0.1 0.2 0.1 0.2 0.2 0.3 0.3 0.5 0 0.1 0.1 0.1 0.1 0.2 0.1 0.2 0.2 0.3 0.3 0.5 0 0.1 0.1 0.1 0.1 0.2 0.2 0.2 0.3 0.4 0.5 0.6l0.5 0.5c0.1 0.1 0.3 0.2 0.5 0.3 0 0 0.1 0 0.1 0.1l0.6 0.3 0.6 0.3c0.2 0.1 0.4 0.1 0.6 0.2h0.1c0.2 0.1 0.4 0.1 0.6 0.1h0.1c0.2 0 0.4 0.1 0.5 0.1h0.2 0.7c0.3 0 0.6 0 0.8-0.1h0.1l64.1-8.5c3.8-0.5 6.5-4 6-7.9-0.5-3.8-4-6.5-7.9-6l-43.6 5.8 189-189-5.8 43.6c-0.5 3.8 2.2 7.4 6 7.9 0.3 0 0.6 0.1 0.9 0.1 3.5 0 6.5-2.6 6.9-6.1l8.5-64.1c0.4-2.1-0.4-4.3-1.9-5.8z" fill="#fff"/>
</g>
</g>
</svg>